<?xml version="1.0" standalone="no"?>
<!DOCTYPE svg PUBLIC "-//W3C//DTD SVG 20010904//EN"
 "http://www.w3.org/TR/2001/REC-SVG-20010904/DTD/svg10.dtd">
<svg version="1.0" xmlns="http://www.w3.org/2000/svg"
 width="1480.000000pt" height="1218.000000pt" viewBox="0 0 1480.000000 1218.000000"
 preserveAspectRatio="xMidYMid meet">

<g transform="translate(0.000000,1218.000000) scale(0.100000,-0.100000)"
fill="#000000" stroke="none">
<path d="M8539 10224 c-17 -21 0 -49 31 -49 31 0 48 28 31 49 -8 9 -21 16 -31
16 -10 0 -23 -7 -31 -16z"/>
<path d="M8723 10230 c-25 -10 -43 -39 -43 -69 0 -14 -6 -21 -20 -21 -15 0
-20 -7 -20 -25 0 -18 5 -25 20 -25 19 0 20 -7 20 -90 l0 -90 30 0 30 0 0 90
c0 89 0 90 25 90 20 0 25 5 25 25 0 20 -5 25 -25 25 -14 0 -25 6 -25 13 0 19
21 37 42 37 13 0 18 8 18 25 0 21 -5 25 -27 24 -16 0 -38 -4 -50 -9z"/>
<path d="M9720 10075 l0 -165 30 0 30 0 0 165 0 165 -30 0 -30 0 0 -165z"/>
<path d="M4860 10195 c0 -24 2 -25 63 -25 35 0 66 -3 69 -6 4 -3 -29 -54 -73
-113 -43 -60 -79 -115 -79 -124 0 -15 16 -17 125 -17 l125 0 0 25 c0 24 -2 25
-75 25 -41 0 -75 3 -75 6 0 4 34 54 75 112 41 58 75 114 75 124 0 16 -10 18
-115 18 l-115 0 0 -25z"/>
<path d="M6600 10065 l0 -155 73 0 c132 1 197 52 197 158 0 108 -55 151 -192
152 l-78 0 0 -155z m132 95 c21 -6 44 -21 53 -33 19 -28 19 -96 0 -124 -16
-23 -88 -49 -105 -38 -11 7 -14 188 -3 198 8 9 11 9 55 -3z"/>
<path d="M7462 10201 c-79 -37 -106 -156 -51 -232 l20 -29 -20 0 c-17 0 -21
-6 -21 -29 l0 -30 85 -3 c74 -3 85 -1 85 14 0 9 16 25 37 35 52 26 76 63 80
125 10 126 -100 202 -215 149z m127 -67 c31 -39 29 -107 -4 -139 -39 -40 -96
-32 -120 16 -19 36 -19 72 0 109 17 32 27 38 72 39 23 1 37 -6 52 -25z"/>
<path d="M8320 10065 l0 -155 90 0 c89 0 90 0 90 25 0 22 -4 24 -57 27 l-58 3
-3 128 -3 127 -29 0 -30 0 0 -155z"/>
<path d="M6078 10198 c-20 -7 -28 -17 -28 -34 0 -15 -6 -24 -15 -24 -9 0 -15
-9 -15 -25 0 -16 6 -25 15 -25 12 0 15 -13 15 -60 0 -96 29 -132 95 -116 32 8
34 43 3 48 -21 3 -23 9 -26 66 -3 61 -2 62 23 62 20 0 25 5 25 25 0 20 -5 25
-25 25 -22 0 -25 4 -25 35 0 38 -1 38 -42 23z"/>
<path d="M5184 10130 c-67 -27 -86 -125 -35 -182 27 -30 35 -33 86 -33 51 0
59 3 86 33 32 35 39 90 18 136 -21 45 -100 68 -155 46z m90 -62 c31 -44 7
-108 -39 -108 -27 0 -55 33 -55 65 0 32 28 65 55 65 13 0 31 -10 39 -22z"/>
<path d="M5400 10025 l0 -115 30 0 30 0 0 69 c0 53 4 74 19 92 16 20 23 22 38
13 15 -9 19 -27 21 -93 l3 -81 34 0 34 0 3 81 c2 63 7 84 20 92 33 21 48 -8
48 -94 l0 -79 36 0 36 0 -4 96 c-4 86 -7 99 -27 115 -30 24 -62 24 -92 0 -24
-19 -25 -19 -48 0 -28 23 -60 24 -87 4 -25 -19 -34 -19 -34 0 0 10 -10 15 -30
15 l-30 0 0 -115z"/>
<path d="M5833 10130 c-30 -12 -32 -54 -3 -46 11 3 28 8 38 11 20 6 61 -19 50
-30 -4 -4 -28 -11 -54 -16 -61 -12 -74 -24 -74 -70 0 -41 26 -69 65 -69 11 0
31 7 43 16 20 14 22 14 22 0 0 -11 10 -16 30 -16 l30 0 0 89 c0 109 -13 131
-80 137 -25 2 -55 -1 -67 -6z m87 -128 c0 -24 -19 -42 -46 -42 -37 0 -40 39
-4 53 30 11 50 7 50 -11z"/>
<path d="M6244 10121 c-67 -41 -67 -150 -1 -192 23 -15 44 -19 74 -16 57 6 89
28 103 73 36 107 -79 194 -176 135z m97 -41 c24 -13 26 -81 3 -104 -35 -36
-84 -7 -84 49 0 54 36 78 81 55z"/>
<path d="M6944 10106 c-30 -30 -34 -40 -34 -84 0 -39 6 -57 25 -80 l24 -29
-55 -6 c-31 -3 -58 -8 -61 -11 -3 -3 -2 -17 1 -31 7 -26 8 -26 74 -20 96 9
105 13 100 40 -4 20 0 24 34 29 32 5 38 10 38 30 0 22 -3 23 -43 19 -32 -4
-48 -1 -60 12 -29 28 -19 35 53 35 l70 0 0 36 c0 50 -45 94 -95 94 -29 0 -45
-8 -71 -34z m106 -41 c0 -11 -12 -15 -40 -15 -45 0 -51 11 -18 34 24 17 58 6
58 -19z"/>
<path d="M7136 10118 c3 -13 19 -58 34 -100 16 -42 26 -79 22 -82 -3 -3 -22
-6 -42 -6 -35 0 -36 -1 -32 -30 l4 -30 84 0 84 0 0 34 c0 18 16 77 35 130 19
53 35 99 35 101 0 3 -16 5 -35 5 -20 0 -35 -5 -35 -11 0 -7 -10 -44 -21 -83
l-22 -71 -13 40 c-7 22 -18 59 -24 83 -10 39 -13 42 -46 42 -32 0 -35 -2 -28
-22z"/>
<path d="M7728 10038 c-3 -101 -3 -103 -28 -107 -51 -7 -57 -58 -7 -63 27 -2
33 -8 35 -30 3 -24 8 -28 33 -28 24 0 29 4 29 25 0 20 5 25 25 25 20 0 25 5
25 25 0 16 6 25 15 25 29 0 71 28 83 55 7 14 12 46 12 71 0 78 -73 129 -126
89 -25 -19 -34 -19 -34 0 0 10 -10 15 -30 15 l-29 0 -3 -102z m143 36 c16 -19
15 -79 -1 -99 -29 -35 -80 -5 -80 47 0 56 51 88 81 52z"/>
<path d="M8025 10128 c-28 -16 -35 -28 -35 -66 0 -31 4 -35 50 -55 28 -11 50
-24 50 -29 0 -17 -39 -28 -65 -18 -35 13 -35 14 -35 -15 0 -18 7 -26 26 -31
39 -10 97 3 117 27 35 43 17 82 -50 109 -58 22 -32 55 30 39 24 -7 27 -5 27
16 0 12 -7 26 -16 29 -25 10 -77 6 -99 -6z"/>
<path d="M8540 10025 l0 -115 30 0 30 0 0 115 0 115 -30 0 -30 0 0 -115z"/>
<path d="M8854 10106 c-30 -30 -34 -41 -34 -84 0 -84 54 -125 145 -108 28 6
35 11 35 30 0 22 -3 23 -43 19 -32 -4 -48 -1 -60 12 -29 28 -19 35 53 35 l70
0 0 36 c0 50 -45 94 -95 94 -29 0 -45 -8 -71 -34z m106 -41 c0 -11 -12 -15
-40 -15 -45 0 -51 11 -18 34 24 17 58 6 58 -19z"/>
<path d="M9116 10125 c-37 -19 -53 -41 -61 -82 -12 -65 42 -133 107 -133 47 0
68 12 68 36 0 21 -3 23 -30 18 -45 -9 -80 17 -80 61 0 44 35 70 80 61 27 -5
30 -3 30 18 0 38 -60 49 -114 21z"/>
<path d="M9250 10135 c0 -3 20 -54 44 -114 40 -99 42 -110 29 -134 -9 -19 -22
-27 -39 -27 -21 0 -25 -4 -22 -22 6 -44 81 -30 111 21 14 23 107 266 107 278
0 3 -15 3 -32 1 -31 -3 -33 -6 -53 -75 -19 -68 -35 -101 -35 -73 0 7 -9 44
-20 81 -21 68 -21 69 -55 69 -19 0 -35 -2 -35 -5z"/>
<path d="M9564 10130 c-39 -16 -64 -59 -64 -109 1 -68 43 -111 109 -111 44 0
61 10 61 35 0 21 -3 23 -34 18 -26 -4 -39 0 -55 16 -46 46 -9 118 56 108 32
-6 34 -5 31 21 -3 24 -8 27 -43 29 -22 1 -50 -2 -61 -7z"/>
<path d="M9893 10130 c-63 -26 -81 -136 -31 -187 44 -44 158 -40 158 6 0 16
-6 18 -45 13 -46 -5 -75 8 -75 34 0 11 17 14 70 14 68 0 70 1 70 25 0 78 -73
125 -147 95z m68 -40 c34 -19 23 -40 -21 -40 -43 0 -49 9 -24 34 18 19 20 19
45 6z"/>
<path d="M7940 9882 c0 -34 4 -35 113 -48 l57 -6 0 30 c0 34 -6 36 -107 48
l-63 7 0 -31z"/>
<path d="M2176 9879 l-26 -20 0 -309 c0 -170 3 -316 6 -325 16 -41 49 -45 358
-45 l295 0 28 24 28 24 3 305 3 304 -26 32 -27 31 -308 0 c-296 0 -308 -1
-334 -21z m224 -325 l0 -27 21 27 c11 14 27 26 36 26 11 0 8 -8 -11 -31 l-26
-31 22 -28 c25 -31 44 -39 34 -15 -3 8 1 20 8 27 10 10 11 17 2 30 -17 29 14
54 53 42 29 -9 30 -10 18 -34 -11 -22 -11 -28 0 -38 10 -10 10 -18 3 -32 -9
-16 -21 -20 -65 -20 -47 0 -56 3 -74 28 l-20 27 -1 -27 c0 -16 -4 -28 -10 -28
-6 0 -10 28 -10 65 0 37 4 65 10 65 6 0 10 -12 10 -26z m240 -25 c0 -6 -9 -8
-20 -4 -30 10 -24 -12 9 -31 27 -16 28 -19 13 -30 -20 -15 -62 -18 -62 -5 0 5
9 7 20 4 27 -7 26 11 -2 29 -28 19 -18 48 17 48 14 0 25 -5 25 -11z"/>
<path d="M2513 9545 c0 -14 3 -25 7 -25 11 0 18 22 12 38 -7 21 -19 13 -19
-13z"/>
<path d="M2503 9494 c-8 -21 13 -42 28 -27 13 13 5 43 -11 43 -6 0 -13 -7 -17
-16z"/>
<path d="M3279 9887 c-36 -28 -39 -51 -39 -341 0 -157 4 -296 10 -310 20 -52
32 -55 344 -60 159 -2 300 0 312 4 12 5 31 19 43 31 20 22 20 28 15 333 -6
295 -7 312 -27 334 -20 22 -22 22 -331 22 -229 -1 -315 -4 -327 -13z m331
-339 c0 -39 1 -40 18 -25 10 10 24 17 31 17 7 0 3 -9 -10 -19 l-24 -19 24 -26
c27 -29 10 -37 -21 -9 -17 15 -18 15 -18 0 0 -10 -4 -17 -10 -17 -6 0 -10 30
-10 70 0 40 4 70 10 70 6 0 10 -19 10 -42z m-240 -14 c0 -57 -14 -84 -43 -83
-17 1 -18 2 -4 6 14 4 17 16 17 64 0 46 3 59 15 59 11 0 15 -12 15 -46z m330
36 c0 -5 -4 -10 -10 -10 -5 0 -10 5 -10 10 0 6 5 10 10 10 6 0 10 -4 10 -10z
m-242 -42 c22 -22 13 -38 -19 -38 -20 0 -29 -4 -26 -12 2 -7 14 -13 26 -12 11
0 21 -3 21 -8 0 -4 -14 -8 -30 -8 -38 0 -59 35 -41 69 13 23 50 28 69 9z m106
-4 c10 -25 7 -74 -4 -74 -5 0 -10 12 -10 28 0 15 -4 33 -9 41 -14 22 -31 3
-31 -35 0 -19 -4 -34 -10 -34 -5 0 -10 20 -10 45 0 44 0 45 34 45 22 0 36 -6
40 -16z m136 -29 c0 -25 -4 -45 -10 -45 -5 0 -10 20 -10 45 0 25 5 45 10 45 6
0 10 -20 10 -45z m98 33 c18 -18 16 -78 -3 -78 -11 0 -15 11 -15 41 0 52 -24
48 -28 -4 -2 -24 -8 -37 -18 -37 -10 0 -14 13 -14 45 0 44 1 45 33 45 18 0 38
-5 45 -12z m82 2 c0 -5 -6 -7 -14 -4 -26 10 -27 -16 -1 -28 35 -16 28 -42 -13
-46 -19 -2 -32 1 -32 8 0 7 8 9 19 5 30 -9 36 14 7 25 -25 9 -34 29 -19 43 10
11 53 8 53 -3z"/>
<path d="M3417 9523 c-13 -12 -7 -23 13 -23 13 0 18 5 14 15 -7 16 -17 19 -27
8z"/>
<path d="M6653 9871 c-67 -11 -83 -17 -83 -32 0 -45 5 -46 93 -31 45 8 83 16
85 17 2 2 0 16 -5 32 l-8 29 -82 -15z"/>
<path d="M8208 9841 l-4 -29 80 -15 c45 -8 85 -11 89 -7 5 4 7 18 5 31 -2 20
-12 25 -63 36 -93 19 -102 17 -107 -16z"/>
<path d="M6365 9813 c-33 -9 -61 -17 -63 -18 -1 -1 1 -15 4 -32 l6 -30 81 20
c45 11 83 21 85 22 2 2 0 14 -4 29 -7 30 -20 31 -109 9z"/>
<path d="M8479 9800 c-1 -11 -2 -25 -3 -31 -1 -10 118 -48 151 -49 13 0 30 47
20 56 -5 5 -145 43 -159 44 -5 0 -9 -9 -9 -20z"/>
<path d="M6185 9764 c-5 -2 -42 -12 -82 -24 l-72 -20 11 -31 c6 -17 15 -28 22
-26 6 2 41 12 79 23 54 15 67 23 67 39 0 25 -12 43 -25 39z"/>
<path d="M8744 9725 c-4 -14 -3 -30 2 -34 9 -8 131 -51 145 -51 4 0 11 13 17
28 10 29 10 29 -62 52 -39 12 -76 25 -83 27 -7 3 -15 -7 -19 -22z"/>
<path d="M5853 9657 l-81 -29 10 -29 c5 -16 13 -29 16 -29 3 0 38 12 79 27 73
27 81 37 65 74 -6 14 -17 12 -89 -14z"/>
<path d="M9002 9631 l-10 -28 79 -31 80 -30 14 28 14 28 -77 31 c-42 17 -80
31 -84 31 -3 0 -11 -13 -16 -29z"/>
<path d="M5600 9555 c-61 -26 -75 -36 -73 -53 1 -11 -4 -26 -12 -32 -25 -21
-19 -77 10 -96 53 -35 109 18 85 81 -6 15 -9 29 -8 31 2 1 25 12 51 23 51 22
53 25 34 57 l-12 21 -75 -32z m-5 -130 c0 -36 -3 -40 -28 -43 -34 -4 -57 13
-57 42 0 31 16 43 53 42 31 -1 32 -3 32 -41z"/>
<path d="M9261 9537 c-5 -12 -8 -71 -8 -132 0 -60 2 -91 4 -67 4 40 15 53 28
32 18 -29 75 13 75 55 0 22 3 24 19 15 13 -6 21 -23 24 -48 l4 -37 1 42 c1 23
6 53 12 67 6 16 6 27 0 31 -6 4 -11 18 -11 33 -2 24 -2 24 -6 5 -5 -27 -14
-28 -53 -8 -67 35 -80 36 -89 12z m19 -57 c0 -5 -4 -10 -10 -10 -5 0 -10 5
-10 10 0 6 5 10 10 10 6 0 10 -4 10 -10z m60 -26 c10 -11 11 -23 4 -42 -17
-48 -84 -38 -84 12 0 43 53 63 80 30z"/>
<path d="M5155 9541 c-3 -5 -1 -12 5 -16 5 -3 10 1 10 9 0 18 -6 21 -15 7z"/>
<path d="M6870 9534 c0 -8 5 -12 10 -9 6 4 8 11 5 16 -9 14 -15 11 -15 -7z"/>
<path d="M8110 9534 c0 -8 5 -12 10 -9 6 4 8 11 5 16 -9 14 -15 11 -15 -7z"/>
<path d="M4649 9525 c-52 -28 -58 -109 -11 -145 27 -22 58 -25 82 -10 11 7 4
10 -27 10 -32 0 -46 5 -57 22 -38 54 -5 118 60 118 21 0 33 4 29 10 -9 14 -45
12 -76 -5z"/>
<path d="M5980 9448 c0 -50 3 -88 8 -84 10 10 10 176 0 176 -4 0 -8 -41 -8
-92z"/>
<path d="M7328 9529 c-20 -11 -24 -44 -7 -54 7 -5 3 -14 -11 -27 -27 -26 -22
-58 12 -77 24 -14 30 -14 62 1 30 15 36 15 46 2 14 -16 40 -19 40 -4 0 6 -6
10 -13 10 -27 0 -36 21 -21 48 8 15 13 38 13 52 -1 22 -2 22 -8 -6 -13 -52
-19 -56 -52 -32 -24 18 -27 24 -14 31 20 11 19 53 -1 61 -21 8 -26 7 -46 -5z
m52 -29 c0 -25 -30 -34 -49 -15 -15 15 -14 17 2 30 23 17 47 9 47 -15z m9 -74
c22 -27 6 -48 -35 -44 -51 4 -68 32 -36 58 25 21 46 16 71 -14z"/>
<path d="M7610 9527 c-54 -27 -64 -94 -21 -138 30 -29 64 -37 91 -19 11 7 4
10 -26 10 -50 0 -74 23 -74 72 0 45 25 68 74 68 22 0 35 4 31 10 -8 14 -45 12
-75 -3z"/>
<path d="M8940 9450 l0 -90 33 0 c47 0 94 32 102 70 14 65 -27 110 -100 110
l-35 0 0 -90z m102 53 c11 -10 18 -30 18 -54 0 -45 -27 -69 -77 -69 l-33 0 0
70 0 70 37 0 c20 0 45 -7 55 -17z"/>
<path d="M5081 9508 c0 -10 -9 -18 -18 -18 -17 -1 -17 -1 -1 -13 11 -9 18 -31
20 -63 2 -37 7 -50 21 -52 9 -2 17 1 17 7 0 6 -7 11 -15 11 -11 0 -15 12 -15
45 0 33 4 45 15 45 8 0 15 5 15 10 0 6 -6 10 -14 10 -8 0 -17 8 -19 18 -4 16
-5 16 -6 0z"/>
<path d="M6201 9508 c0 -9 -7 -19 -13 -22 -10 -5 -10 -7 0 -12 7 -3 12 -24 12
-48 0 -42 13 -66 37 -66 20 0 15 17 -7 23 -16 4 -20 14 -20 46 0 34 3 41 20
41 11 0 20 5 20 10 0 6 -9 10 -19 10 -11 0 -22 8 -24 18 -4 15 -5 15 -6 0z"/>
<path d="M6791 9508 c0 -9 -7 -19 -13 -22 -10 -5 -10 -7 0 -12 7 -3 12 -24 12
-48 0 -42 13 -66 37 -66 20 0 15 17 -7 23 -16 4 -20 14 -20 46 0 34 3 41 20
41 11 0 20 5 20 10 0 6 -9 10 -19 10 -11 0 -22 8 -24 18 -4 15 -5 15 -6 0z"/>
<path d="M8031 9508 c0 -9 -7 -19 -13 -22 -10 -5 -10 -7 0 -12 7 -3 12 -24 12
-48 0 -42 13 -66 37 -66 20 0 15 17 -7 23 -16 4 -20 14 -20 46 0 34 3 41 20
41 11 0 20 5 20 10 0 6 -9 10 -19 10 -11 0 -22 8 -24 18 -4 15 -5 15 -6 0z"/>
<path d="M10241 9508 c0 -9 -7 -19 -13 -22 -10 -5 -10 -7 0 -12 7 -3 12 -24
12 -48 0 -42 13 -66 37 -66 20 0 15 17 -7 23 -16 4 -20 14 -20 46 0 34 3 41
20 41 11 0 20 5 20 10 0 6 -9 10 -19 10 -11 0 -22 8 -24 18 -4 15 -5 15 -6 0z"/>
<path d="M4792 9474 c-42 -29 -19 -114 30 -114 30 0 59 34 60 69 2 54 -44 77
-90 45z m73 -49 c0 -36 -3 -40 -28 -43 -34 -4 -57 13 -57 42 0 31 20 47 55 44
28 -3 30 -6 30 -43z"/>
<path d="M4920 9425 c0 -78 18 -88 22 -12 3 50 4 52 33 52 29 0 30 -2 35 -55
6 -64 19 -56 15 9 -4 57 -25 79 -60 63 -15 -7 -25 -8 -25 -2 0 6 -4 10 -10 10
-6 0 -10 -28 -10 -65z"/>
<path d="M5150 9425 c0 -37 4 -65 10 -65 6 0 10 28 10 65 0 37 -4 65 -10 65
-6 0 -10 -28 -10 -65z"/>
<path d="M5220 9425 c0 -38 2 -66 4 -64 8 7 10 118 3 126 -4 3 -7 -24 -7 -62z"/>
<path d="M5255 9481 c-3 -5 5 -11 17 -13 28 -4 39 -54 14 -64 -14 -5 -14 -9 0
-35 14 -29 15 -29 45 -14 16 9 39 13 49 10 11 -3 28 -1 40 5 13 7 20 7 20 0 0
-5 5 -10 10 -10 6 0 10 28 10 65 0 37 -4 65 -10 65 -5 0 -10 -6 -10 -13 0 -7
-8 -13 -17 -13 -10 -1 -26 -4 -35 -8 -12 -6 -18 -2 -21 16 -4 21 -4 21 -6 -4
0 -16 -9 -32 -20 -37 -16 -9 -20 -6 -26 17 -9 37 -45 57 -60 33z m180 -90 c-3
-6 -16 -11 -28 -11 -21 1 -21 1 3 15 27 14 36 13 25 -4z"/>
<path d="M5650 9453 c0 -77 25 -107 69 -84 14 8 21 8 24 -2 3 -6 5 20 5 58
l-1 70 -6 -55 c-6 -53 -7 -55 -38 -58 -29 -3 -32 0 -39 32 -3 20 -4 42 -1 51
4 8 2 17 -3 20 -6 4 -10 -10 -10 -32z"/>
<path d="M5806 9474 c-23 -22 -20 -30 20 -53 40 -24 37 -41 -9 -41 -24 0 -28
-3 -19 -12 8 -8 20 -9 39 -2 37 13 37 44 1 62 -38 18 -36 42 3 42 17 0 28 4
24 10 -9 15 -42 12 -59 -6z"/>
<path d="M6052 9425 c1 -52 3 -59 5 -25 5 53 17 70 49 70 25 0 30 -12 37 -80
3 -26 4 -21 5 17 3 69 -32 105 -66 71 -10 -10 -15 -10 -22 2 -7 10 -9 -8 -8
-55z"/>
<path d="M6290 9470 c-50 -50 11 -138 70 -100 11 7 6 10 -22 10 -27 0 -40 6
-48 19 -9 18 -6 20 37 23 42 3 48 6 45 23 -4 22 -29 45 -49 45 -7 0 -22 -9
-33 -20z m68 -17 c2 -9 -9 -13 -38 -13 -37 0 -41 2 -30 16 15 17 61 15 68 -3z"/>
<path d="M6427 9472 c-10 -10 -17 -35 -17 -55 0 -44 29 -65 66 -48 28 12 35 4
23 -26 -7 -19 -16 -23 -51 -23 -35 -1 -40 -3 -25 -11 28 -16 77 -1 88 28 13
34 12 153 -2 153 -5 0 -7 -4 -4 -10 3 -5 2 -10 -4 -10 -5 0 -13 5 -16 10 -10
16 -40 12 -58 -8z m68 -47 c0 -39 -1 -40 -35 -40 -38 0 -47 16 -36 61 6 21 12
25 39 22 30 -3 32 -5 32 -43z"/>
<path d="M6560 9425 c0 -37 4 -65 10 -65 6 0 10 28 10 65 0 37 -4 65 -10 65
-6 0 -10 -28 -10 -65z"/>
<path d="M6595 9480 c-3 -5 3 -10 15 -10 12 0 18 5 15 10 -3 6 -10 10 -15 10
-5 0 -12 -4 -15 -10z"/>
<path d="M6670 9480 c-11 -7 -8 -10 16 -10 47 0 53 -27 8 -36 -43 -8 -61 -36
-38 -58 19 -19 36 -20 52 -4 10 10 15 10 22 -2 7 -10 10 2 10 42 0 47 -4 59
-19 68 -24 12 -32 12 -51 0z m60 -68 c0 -15 -24 -32 -47 -32 -22 0 -31 19 -16
33 9 10 63 9 63 -1z"/>
<path d="M6873 9425 c0 -38 2 -53 4 -32 2 20 2 52 0 70 -2 17 -4 1 -4 -38z"/>
<path d="M6940 9470 c-11 -11 -20 -31 -20 -45 0 -29 32 -65 58 -65 34 0 62 29
62 65 0 57 -60 85 -100 45z m78 -12 c16 -16 15 -53 -2 -67 -8 -7 -27 -11 -42
-9 -53 6 -50 88 4 88 15 0 33 -5 40 -12z"/>
<path d="M7081 9425 c2 -66 2 -67 8 -23 8 56 20 71 52 66 21 -3 25 -10 30 -58
l6 -55 1 56 c2 69 -14 89 -55 70 -21 -10 -28 -9 -34 1 -5 7 -8 -17 -8 -57z"/>
<path d="M7740 9470 c-11 -11 -20 -31 -20 -45 0 -30 32 -65 60 -65 53 0 81 84
38 114 -30 21 -54 20 -78 -4z m81 -21 c18 -34 -3 -69 -41 -69 -22 0 -33 6 -41
24 -16 35 3 66 41 66 20 0 33 -7 41 -21z"/>
<path d="M7882 9425 c1 -52 3 -59 5 -25 5 53 17 70 49 70 25 0 30 -12 37 -80
3 -26 4 -21 5 17 3 69 -32 105 -66 71 -10 -10 -15 -10 -22 2 -7 10 -9 -8 -8
-55z"/>
<path d="M8113 9425 c0 -38 2 -53 4 -32 2 20 2 52 0 70 -2 17 -4 1 -4 -38z"/>
<path d="M8170 9425 c0 -78 18 -88 22 -12 3 50 4 52 33 52 29 0 30 -2 35 -55
6 -64 19 -56 15 9 -4 57 -25 79 -60 63 -15 -7 -25 -8 -25 -2 0 6 -4 10 -10 10
-6 0 -10 -28 -10 -65z"/>
<path d="M8322 9439 c-2 -68 14 -89 53 -71 15 7 25 8 25 2 0 -6 5 -10 10 -10
6 0 10 28 10 65 0 78 -18 88 -22 13 -3 -51 -4 -53 -33 -53 -29 0 -30 2 -36 55
l-6 55 -1 -56z"/>
<path d="M8482 9474 c-42 -29 -19 -114 30 -114 30 0 59 34 60 69 2 54 -44 77
-90 45z m73 -49 c0 -36 -3 -40 -28 -43 -34 -4 -57 13 -57 42 0 31 20 47 55 44
28 -3 30 -6 30 -43z"/>
<path d="M8611 9443 c-1 -35 4 -57 15 -67 18 -18 40 -21 49 -6 3 6 -5 10 -19
10 -26 0 -25 -1 -39 90 -3 14 -5 2 -6 -27z"/>
<path d="M8698 9438 c-3 -29 -1 -60 3 -68 5 -9 9 13 9 53 0 80 -6 88 -12 15z"/>
<path d="M8765 9476 c-23 -17 -15 -40 22 -58 36 -17 32 -32 -9 -39 -27 -5 -30
-7 -15 -14 26 -11 69 11 65 33 -2 9 -16 23 -31 30 -34 17 -36 42 -2 42 14 0
25 5 25 10 0 14 -33 12 -55 -4z"/>
<path d="M9132 9474 c-51 -35 -13 -125 45 -108 l28 8 -30 4 c-66 8 -74 42 -10
42 38 0 45 3 45 19 0 22 -25 51 -43 51 -7 0 -23 -7 -35 -16z m66 -21 c2 -9 -9
-13 -37 -13 -32 0 -39 3 -34 16 7 18 64 16 71 -3z"/>
<path d="M9470 9470 c-39 -39 -11 -110 45 -110 38 0 94 -30 88 -48 -5 -11 -1
-13 18 -7 31 10 50 35 45 58 -3 10 4 39 15 64 11 26 18 51 16 57 -2 6 -12 -13
-21 -41 -10 -29 -21 -55 -25 -57 -4 -3 -15 19 -25 49 -9 30 -21 55 -26 55 -4
0 0 -22 11 -50 10 -27 17 -50 14 -50 -17 0 -55 35 -55 51 0 21 -36 49 -62 49
-10 0 -27 -9 -38 -20z m78 -12 c19 -19 14 -30 -9 -23 -16 5 -22 1 -32 -24 -13
-34 -26 -36 -37 -5 -12 33 6 64 38 64 15 0 33 -5 40 -12z"/>
<path d="M9742 9425 l1 -70 6 55 c6 53 7 55 36 55 29 0 30 -2 36 -55 l6 -55 2
45 c2 56 12 73 42 68 21 -3 25 -10 30 -58 l6 -55 1 56 c2 68 -14 89 -54 70
-20 -9 -30 -9 -40 0 -11 9 -21 9 -39 1 -18 -8 -25 -8 -29 1 -2 7 -4 -19 -4
-58z"/>
<path d="M9972 9474 c-51 -35 -13 -125 45 -108 l28 8 -30 4 c-66 8 -74 42 -10
42 38 0 45 3 45 19 0 22 -25 51 -43 51 -7 0 -23 -7 -35 -16z m66 -21 c2 -9 -9
-13 -37 -13 -32 0 -39 3 -34 16 7 18 64 16 71 -3z"/>
<path d="M10091 9425 c2 -66 2 -67 8 -23 8 56 20 71 52 66 21 -3 25 -10 30
-58 l6 -55 1 56 c2 69 -14 89 -55 70 -21 -10 -28 -9 -34 1 -5 7 -8 -17 -8 -57z"/>
<path d="M10574 9365 c-145 -31 -266 -98 -373 -206 -147 -146 -221 -324 -221
-529 0 -204 74 -382 220 -531 123 -125 270 -196 450 -218 138 -18 265 3 403
66 42 20 79 34 81 32 1 -2 14 -20 27 -41 l25 -36 24 18 c27 20 27 16 -12 80
-11 17 -5 26 55 86 108 106 172 214 209 353 27 101 29 268 3 366 -88 345 -385
577 -735 574 -52 0 -123 -7 -156 -14z m306 -720 l0 -95 -50 0 c-42 0 -52 4
-66 25 -11 17 -14 34 -9 52 10 41 24 53 61 53 31 0 34 3 34 30 0 20 5 30 15
30 12 0 15 -17 15 -95z m-290 71 c0 -11 -11 -14 -41 -13 -48 2 -69 -19 -69
-70 0 -42 33 -66 78 -57 25 5 32 3 32 -10 0 -13 -10 -16 -49 -16 -69 0 -96 24
-96 83 0 65 32 97 97 97 35 0 48 -4 48 -14z m134 -52 c9 -8 16 -31 16 -49 0
-44 -22 -65 -70 -65 -31 0 -43 5 -56 25 -17 26 -13 67 8 92 15 18 83 16 102
-3z m290 0 c9 -8 16 -24 16 -35 0 -16 -7 -19 -45 -19 -32 0 -45 -4 -45 -14 0
-19 26 -27 57 -20 19 5 24 3 21 -7 -3 -8 -22 -15 -46 -17 -35 -3 -43 1 -58 22
-17 27 -13 68 8 93 15 18 73 16 92 -3z"/>
<path d="M10803 8653 c-15 -6 -17 -51 -3 -73 7 -12 13 -12 27 -4 22 14 29 50
13 70 -13 15 -17 16 -37 7z"/>
<path d="M10652 8648 c-7 -7 -12 -24 -12 -39 0 -32 32 -48 55 -29 27 23 12 80
-20 80 -6 0 -16 -5 -23 -12z"/>
<path d="M10947 8654 c-14 -14 -6 -24 19 -24 16 0 24 5 22 13 -5 14 -31 21
-41 11z"/>
<path d="M9682 9325 c-7 -14 -12 -27 -12 -29 0 -2 32 -23 71 -46 67 -40 71
-41 84 -23 26 34 27 34 -76 92 l-56 31 -11 -25z"/>
<path d="M5098 9299 l-66 -40 16 -28 16 -28 73 44 c40 25 73 48 73 51 -1 12
-27 42 -36 42 -5 -1 -39 -19 -76 -41z"/>
<path d="M9916 9181 l-15 -29 70 -46 c67 -45 72 -46 85 -29 7 10 14 23 14 29
0 6 -31 32 -70 57 l-70 47 -14 -29z"/>
<path d="M4872 9156 c-34 -24 -64 -45 -67 -47 -2 -2 5 -15 15 -29 l18 -24 71
47 c71 47 71 47 55 72 -9 14 -19 25 -23 24 -3 0 -34 -20 -69 -43z"/>
<path d="M4650 8998 c-36 -27 -66 -53 -67 -56 -2 -4 6 -18 16 -31 l18 -24 71
54 c57 42 69 56 62 69 -22 41 -33 40 -100 -12z"/>
<path d="M4430 8821 c-65 -59 -65 -59 -46 -80 11 -11 24 -21 30 -21 6 1 37 25
70 54 l59 54 -19 26 c-11 14 -21 25 -24 26 -3 0 -34 -27 -70 -59z"/>
<path d="M4285 8690 c-3 -5 1 -10 10 -10 9 0 13 5 10 10 -3 6 -8 10 -10 10 -2
0 -7 -4 -10 -10z"/>
<path d="M4253 8659 c-7 -7 -13 -35 -13 -62 0 -42 -2 -48 -20 -45 -10 2 -20
-1 -20 -7 -3 -19 18 -16 45 7 23 20 26 29 23 71 -2 39 -5 46 -15 36z"/>
<path d="M4311 8651 c-7 -5 -11 -16 -9 -26 3 -16 5 -15 21 3 19 21 11 37 -12
23z"/>
<path d="M4185 8590 c-10 -11 -13 -20 -8 -20 13 0 38 29 31 35 -3 3 -13 -4
-23 -15z"/>
<path d="M4036 8436 c-31 -35 -56 -66 -56 -68 0 -3 12 -13 26 -23 25 -16 25
-16 84 47 l58 63 -21 23 c-11 12 -24 22 -28 22 -4 0 -32 -29 -63 -64z"/>
<path d="M3863 8236 c-54 -67 -58 -78 -34 -101 25 -22 32 -17 92 61 41 53 41
55 24 74 -10 11 -23 20 -29 20 -6 -1 -30 -25 -53 -54z"/>
<path d="M4693 8085 c-5 -6 -16 -22 -23 -34 -10 -19 -10 -22 2 -16 20 12 58
48 58 55 0 11 -25 8 -37 -5z"/>
<path d="M3691 8007 l-49 -74 27 -16 27 -16 47 64 c26 35 47 68 47 73 0 5 -11
17 -25 26 -24 16 -24 16 -74 -57z"/>
<path d="M3541 7780 c-43 -71 -44 -82 -11 -100 16 -8 23 -2 51 43 17 28 38 61
45 72 12 19 11 23 -14 37 l-28 17 -43 -69z"/>
<path d="M11263 7835 l-22 -16 40 -62 c22 -34 44 -66 48 -70 10 -10 51 9 51
24 0 13 -80 139 -89 139 -3 0 -16 -7 -28 -15z"/>
<path d="M11413 7608 c-13 -6 -23 -16 -23 -21 0 -9 65 -135 75 -145 3 -3 43
15 54 24 3 3 -78 155 -82 153 -1 0 -12 -5 -24 -11z"/>
<path d="M3417 7568 c-13 -24 -32 -57 -41 -75 -16 -32 -16 -33 12 -47 l27 -14
40 75 c39 72 39 75 21 89 -28 20 -31 19 -59 -28z"/>
<path d="M11538 7364 l-26 -14 36 -79 36 -80 28 15 c27 14 28 16 15 47 -8 17
-25 53 -38 79 -24 46 -24 46 -51 32z"/>
<path d="M3276 7293 c-20 -41 -36 -76 -34 -78 13 -10 51 -26 54 -22 3 3 20 37
39 76 l34 71 -28 14 -27 15 -38 -76z"/>
<path d="M3181 7077 c-29 -68 -45 -116 -40 -121 2 -2 16 -7 30 -11 23 -6 28
-2 37 22 5 15 19 51 30 79 l20 50 -30 12 c-28 10 -30 10 -47 -31z"/>
<path d="M11648 7113 c-10 -2 -18 -9 -18 -15 0 -14 50 -140 59 -150 3 -3 18
-1 33 5 l26 12 -31 78 c-16 42 -35 76 -41 76 -6 -1 -19 -3 -28 -6z"/>
<path d="M11749 6857 l-27 -10 26 -76 c13 -42 26 -78 28 -79 1 -2 16 -1 32 3
l30 6 -25 77 c-14 42 -28 80 -32 83 -3 3 -18 1 -32 -4z"/>
<path d="M3091 6838 c-20 -55 -44 -138 -40 -142 2 -2 15 -7 29 -11 24 -6 27
-2 52 75 l27 81 -25 10 c-34 12 -33 12 -43 -13z"/>
<path d="M3016 6592 c-2 -4 -13 -42 -24 -84 -17 -66 -18 -78 -5 -82 40 -16 48
-7 69 74 l20 79 -28 10 c-15 5 -30 7 -32 3z"/>
<path d="M11821 6591 c-14 -9 -13 -19 15 -117 14 -48 16 -50 44 -46 17 2 30 7
30 10 0 3 -9 41 -21 84 -21 79 -33 91 -68 69z"/>
<path d="M11902 6331 c-27 -7 -27 -6 -12 -98 12 -70 14 -73 41 -73 15 0 30 3
33 8 5 9 -23 155 -32 163 -4 3 -17 3 -30 0z"/>
<path d="M2940 6292 c-5 -22 -13 -59 -16 -84 l-6 -45 -107 -11 c-58 -6 -137
-21 -176 -33 -344 -106 -575 -416 -577 -774 -2 -220 69 -403 217 -563 144
-156 329 -242 558 -261 239 -20 517 107 678 310 370 464 131 1161 -445 1299
-43 11 -81 21 -83 24 -3 2 2 39 11 82 9 42 15 78 14 79 -2 1 -15 5 -30 9 -25
6 -28 3 -38 -32z m50 -857 c0 -8 -6 -15 -14 -15 -17 0 -28 14 -19 24 12 12 33
6 33 -9z m-488 -62 l31 -68 31 68 c21 47 35 67 48 67 16 0 18 -10 18 -90 0
-73 -3 -90 -15 -90 -12 0 -15 14 -15 63 l0 62 -30 -62 c-16 -35 -33 -63 -38
-63 -5 0 -23 30 -40 68 l-31 67 0 -67 c-1 -48 -5 -68 -14 -68 -9 0 -12 22 -11
88 1 48 2 88 3 90 0 1 8 2 17 2 9 0 27 -26 46 -67z m558 37 c0 -11 7 -20 15
-20 8 0 15 -4 15 -10 0 -5 -7 -10 -15 -10 -11 0 -15 -12 -15 -45 0 -33 4 -45
15 -45 8 0 15 -5 15 -11 0 -6 -12 -9 -27 -7 -26 3 -28 7 -31 52 -2 32 -9 54
-20 63 -16 12 -16 12 1 13 10 0 17 8 17 20 0 11 7 20 15 20 8 0 15 -9 15 -20z
m-288 -37 c41 -37 10 -113 -45 -113 -18 0 -37 4 -43 8 -14 9 -31 44 -28 60 1
6 2 16 3 21 5 38 80 54 113 24z m148 -3 c16 -30 13 -110 -5 -110 -11 0 -15 12
-15 50 0 36 -4 52 -15 56 -26 10 -45 -16 -45 -62 0 -32 -4 -44 -15 -44 -12 0
-15 14 -15 64 l0 63 50 2 c39 0 52 -3 60 -19z m70 -45 c0 -51 -3 -65 -15 -65
-12 0 -15 14 -15 65 0 51 3 65 15 65 12 0 15 -14 15 -65z m221 55 c14 -8 19
-21 19 -50 0 -47 -21 -70 -62 -70 -60 0 -88 57 -52 108 17 24 61 30 95 12z
m119 0 c0 -5 -9 -12 -20 -15 -16 -5 -20 -15 -20 -56 0 -37 -4 -49 -15 -49 -12
0 -15 14 -15 64 l0 64 35 0 c19 0 35 -4 35 -8z"/>
<path d="M2689 5349 c-8 -16 -8 -28 0 -45 18 -41 71 -25 71 21 0 44 -50 61
-71 24z"/>
<path d="M3142 5358 c-7 -7 -12 -21 -12 -33 0 -46 53 -62 71 -21 21 45 -26 87
-59 54z"/>
<path d="M11864 6055 c-143 -31 -264 -97 -368 -201 -290 -290 -288 -747 3
-1034 42 -41 106 -92 141 -113 58 -33 177 -77 253 -92 27 -5 28 -8 22 -44 -6
-36 -4 -39 21 -45 32 -8 32 -9 42 40 l8 39 84 6 c181 13 320 78 456 213 75 75
99 107 137 183 62 126 81 214 75 361 -8 190 -66 331 -191 468 -168 183 -442
271 -683 219z m206 -620 c0 -8 -6 -15 -14 -15 -17 0 -28 14 -19 24 12 12 33 6
33 -9z m60 -80 c0 -78 -3 -95 -15 -95 -12 0 -15 17 -15 95 0 78 3 95 15 95 12
0 15 -17 15 -95z m150 0 l0 -95 -50 0 c-42 0 -52 4 -66 25 -11 17 -14 34 -9
52 10 41 24 53 61 53 31 0 34 3 34 30 0 20 5 30 15 30 12 0 15 -17 15 -95z
m-432 73 c15 -15 16 -55 1 -64 -8 -5 -6 -10 5 -16 19 -11 21 -59 4 -76 -7 -7
-34 -12 -60 -12 l-48 0 0 90 0 90 43 0 c24 0 48 -5 55 -12z m72 -88 c0 -38 4
-52 16 -57 24 -9 44 23 44 69 0 27 4 38 15 38 12 0 15 -14 15 -64 l0 -63 -47
-1 c-26 -1 -53 4 -60 10 -19 16 -18 118 2 118 11 0 15 -12 15 -50z m150 -15
c0 -51 -3 -65 -15 -65 -12 0 -15 14 -15 65 0 51 3 65 15 65 12 0 15 -14 15
-65z"/>
<path d="M12197 5356 c-17 -17 -11 -65 9 -73 24 -9 45 18 42 51 -3 35 -27 45
-51 22z"/>
<path d="M11780 5389 c0 -23 4 -30 16 -27 27 5 42 37 24 48 -27 18 -40 11 -40
-21z"/>
<path d="M11780 5309 c0 -25 3 -30 21 -27 31 4 49 35 29 48 -31 20 -50 12 -50
-21z"/>
<path d="M6496 5975 c-3 -9 -7 -35 -7 -58 l-2 -42 -6 35 c-7 35 -8 34 -59 -70
-150 -305 -160 -637 -28 -950 41 -96 63 -133 76 -125 6 3 7 -1 4 -9 -7 -18 31
-71 41 -56 3 5 2 10 -2 10 -5 0 -10 12 -11 26 -1 15 -7 32 -12 39 -7 8 -9 202
-7 556 l2 544 3 -548 c1 -411 5 -546 14 -541 6 4 8 3 4 -4 -3 -6 -3 -13 2 -16
4 -2 8 6 8 19 0 13 -4 21 -8 19 -4 -3 -8 2 -8 11 0 9 4 14 8 11 5 -3 9 1 9 9
0 8 -4 12 -9 9 -4 -3 -8 2 -8 11 0 9 4 14 8 11 5 -3 9 1 9 9 0 8 -4 12 -9 9
-4 -3 -8 2 -8 11 0 9 4 14 8 11 5 -3 9 1 9 9 0 8 -4 12 -9 9 -4 -3 -8 2 -8 11
0 9 4 14 8 11 5 -3 9 1 9 9 0 8 -4 12 -9 9 -4 -3 -8 2 -8 11 0 9 4 14 8 11 5
-3 9 1 9 9 0 8 -4 12 -9 9 -4 -3 -8 2 -8 11 0 9 4 14 8 11 5 -3 9 1 9 9 0 8
-4 12 -9 9 -4 -3 -8 2 -8 11 0 9 4 14 8 11 5 -3 9 1 9 9 0 8 -4 12 -9 9 -4 -3
-8 2 -8 11 0 9 4 14 8 11 5 -3 9 1 9 9 0 8 -4 12 -9 9 -4 -3 -8 2 -8 11 0 9 4
14 8 11 5 -3 9 1 9 9 0 8 -4 12 -9 9 -4 -3 -8 2 -8 11 0 9 4 14 8 11 5 -3 9 1
9 9 0 8 -4 12 -9 9 -4 -3 -8 2 -8 11 0 9 4 14 8 11 5 -3 9 1 9 9 0 8 -4 12 -9
9 -4 -3 -8 2 -8 11 0 9 4 14 8 11 5 -3 9 1 9 9 0 8 -4 12 -9 9 -4 -3 -8 2 -8
11 0 9 4 14 8 11 5 -3 9 1 9 9 0 8 -4 12 -9 9 -4 -3 -8 2 -8 11 0 9 4 14 8 11
5 -3 9 1 9 9 0 8 -4 12 -9 9 -4 -3 -8 2 -8 11 0 9 4 14 8 11 5 -3 9 1 9 9 0 8
-4 12 -9 9 -4 -3 -8 2 -8 11 0 9 4 14 8 11 5 -3 9 1 9 9 0 8 -4 12 -9 9 -4 -3
-8 2 -8 11 0 9 4 14 8 11 5 -3 9 1 9 9 0 8 -4 12 -9 9 -4 -3 -8 2 -8 11 0 9 4
14 8 11 5 -3 9 1 9 9 0 8 -4 12 -9 9 -4 -3 -8 2 -8 11 0 9 4 14 8 11 5 -3 9 1
9 9 0 8 -4 12 -9 9 -4 -3 -8 2 -8 11 0 9 4 14 8 11 5 -3 9 1 9 9 0 8 -4 12 -9
9 -4 -3 -8 2 -8 11 0 9 4 14 8 11 5 -3 9 1 9 9 0 8 -4 12 -9 9 -4 -3 -8 2 -8
11 0 9 4 14 8 11 5 -3 9 1 9 9 0 8 -4 12 -9 9 -4 -3 -8 2 -8 11 0 9 4 14 8 11
5 -3 9 1 9 9 0 8 -4 12 -9 9 -4 -3 -8 2 -8 11 0 9 4 14 8 11 5 -3 9 1 9 9 0 8
-4 12 -9 9 -4 -3 -8 2 -8 11 0 9 4 14 8 11 5 -3 9 1 9 9 0 8 -4 12 -9 9 -4 -3
-8 2 -8 11 0 9 4 14 8 11 5 -3 9 1 9 9 0 8 -4 12 -9 9 -4 -3 -8 7 -8 21 0 14
4 24 8 21 4 -2 8 6 8 19 0 13 -4 21 -8 19 -4 -3 -4 6 1 19 5 13 6 29 2 36 -6
10 -10 9 -15 -4z"/>
<path d="M11882 4393 c-21 -84 -31 -127 -29 -129 1 -2 15 -4 32 -6 29 -3 29
-2 48 76 10 43 17 80 15 81 -2 2 -15 6 -30 10 -25 6 -28 4 -36 -32z"/>
<path d="M2944 4406 c-3 -8 2 -49 11 -90 17 -74 18 -76 43 -70 15 4 29 8 31
10 2 2 -4 40 -14 84 -17 72 -21 80 -42 80 -13 0 -26 -6 -29 -14z"/>
<path d="M3023 4153 c-28 -5 -28 2 -1 -94 21 -79 25 -84 64 -73 21 5 21 7 7
52 -7 26 -18 64 -24 85 -5 20 -13 36 -17 36 -4 -1 -17 -4 -29 -6z"/>
<path d="M11807 4096 c-9 -36 -20 -71 -23 -79 -3 -10 5 -18 25 -25 l31 -11 20
72 c12 40 23 77 25 84 4 12 -16 23 -44 23 -12 0 -21 -17 -34 -64z"/>
<path d="M3105 3888 c-11 -6 -21 -12 -22 -13 -5 -3 49 -155 55 -155 21 1 52
14 52 22 0 18 -52 158 -59 158 -3 0 -15 -6 -26 -12z"/>
<path d="M11718 3821 l-26 -80 30 -10 c21 -8 30 -7 33 2 2 7 16 43 29 82 14
38 24 71 22 72 -1 2 -16 5 -32 9 -29 5 -30 5 -56 -75z"/>
<path d="M11622 3573 c-29 -72 -31 -79 -15 -90 9 -7 22 -13 28 -13 10 0 75
130 75 150 0 5 -43 30 -53 30 -2 0 -17 -35 -35 -77z"/>
<path d="M3195 3626 c-18 -13 -18 -16 10 -82 15 -38 31 -72 34 -76 3 -3 18 -1
33 5 l26 12 -31 77 c-18 43 -37 78 -43 78 -5 0 -19 -6 -29 -14z"/>
<path d="M11507 3324 c-21 -42 -37 -77 -35 -79 7 -6 47 -25 52 -25 7 0 60 105
70 136 5 16 0 23 -19 32 -14 7 -27 12 -28 12 -2 0 -20 -34 -40 -76z"/>
<path d="M3303 3378 l-22 -11 40 -78 39 -79 28 14 28 15 -35 75 c-20 42 -40
75 -46 75 -5 0 -20 -5 -32 -11z"/>
<path d="M11381 3084 c-24 -41 -41 -77 -40 -78 10 -9 51 -27 53 -24 1 2 13 21
26 43 13 22 31 54 41 71 l18 30 -28 17 -28 16 -42 -75z"/>
<path d="M3432 3133 c-21 -18 -21 -18 21 -90 l42 -71 28 15 28 14 -32 57 c-48
84 -53 92 -60 92 -4 0 -16 -8 -27 -17z"/>
<path d="M11237 2850 l-47 -69 22 -16 c13 -8 25 -15 29 -15 3 0 27 31 52 69
l46 69 -24 16 c-13 9 -26 16 -28 16 -2 0 -25 -31 -50 -70z"/>
<path d="M3567 2896 c-17 -13 -16 -18 29 -85 26 -39 49 -71 51 -71 2 0 15 7
28 16 l24 16 -46 69 c-25 38 -51 69 -57 69 -6 0 -19 -7 -29 -14z"/>
<path d="M3990 2825 c-308 -68 -538 -296 -611 -603 -28 -114 -23 -291 11 -397
108 -344 403 -565 755 -568 228 -2 434 86 588 252 31 34 61 61 66 61 11 0 37
40 33 53 -1 4 11 33 27 65 225 445 -11 984 -491 1123 -96 27 -286 35 -378 14z
m270 -760 c0 -78 -3 -95 -15 -95 -12 0 -15 17 -15 95 0 78 3 95 15 95 12 0 15
-17 15 -95z m-360 67 c13 -11 23 -33 27 -59 5 -37 2 -46 -25 -73 -26 -25 -38
-30 -81 -30 l-51 0 0 90 0 90 54 0 c36 0 61 -6 76 -18z m148 -44 c7 -7 12 -22
12 -35 0 -21 -5 -23 -45 -23 -25 0 -45 -4 -45 -9 0 -18 30 -33 55 -27 18 5 25
2 25 -9 0 -26 -75 -20 -94 7 -34 48 -7 108 48 108 17 0 37 -5 44 -12z m146 -4
c21 -20 20 -63 0 -93 -13 -18 -24 -22 -50 -19 -33 4 -34 3 -34 -29 0 -23 -5
-33 -15 -33 -12 0 -15 17 -15 94 l0 93 49 2 c33 0 55 -5 65 -15z m210 0 c21
-20 20 -73 -1 -96 -20 -22 -70 -23 -95 -1 -22 20 -23 70 -1 95 20 22 76 24 97
2z m67 -21 c18 -58 21 -59 38 -12 9 24 24 45 33 47 15 3 12 -9 -14 -75 -35
-88 -53 -113 -80 -113 -24 0 -23 16 2 23 13 3 20 14 20 31 0 14 -9 48 -20 76
-24 60 -24 60 -6 60 8 0 20 -17 27 -37z"/>
<path d="M3800 2061 c0 -69 1 -71 25 -71 14 0 37 12 52 26 20 20 24 31 19 57
-8 40 -15 46 -59 54 l-37 6 0 -72z"/>
<path d="M3980 2065 c-11 -13 -8 -15 20 -15 21 0 30 4 28 13 -7 18 -33 20 -48
2z"/>
<path d="M4120 2066 c-15 -19 -9 -56 12 -69 34 -22 66 41 36 71 -16 16 -33 15
-48 -2z"/>
<path d="M4332 2068 c-29 -29 -4 -84 35 -76 28 5 26 82 -2 86 -11 1 -26 -3
-33 -10z"/>
<path d="M10576 2794 c-251 -56 -456 -228 -551 -462 -80 -197 -70 -434 27
-626 28 -56 29 -61 13 -72 -16 -12 -16 -14 2 -37 13 -17 23 -21 33 -15 11 7
36 -11 100 -74 97 -95 182 -148 293 -183 364 -116 742 39 916 374 94 182 110
386 46 588 -35 111 -88 195 -185 296 -93 96 -190 155 -325 197 -94 29 -272 36
-369 14z m74 -654 c0 -5 -11 -10 -25 -10 -25 0 -25 -1 -25 -80 0 -64 -3 -80
-15 -80 -12 0 -15 16 -15 80 l0 80 -30 0 c-16 0 -30 5 -30 10 0 6 30 10 70 10
40 0 70 -4 70 -10z m270 -20 c0 -11 7 -20 15 -20 8 0 15 -4 15 -10 0 -5 -7
-10 -15 -10 -11 0 -15 -12 -15 -45 0 -33 4 -45 15 -45 8 0 15 -5 15 -11 0 -6
-12 -9 -27 -7 -26 3 -28 7 -31 53 -2 27 -9 53 -15 58 -9 7 -9 10 1 14 6 2 12
13 12 24 0 10 7 19 15 19 8 0 15 -9 15 -20z m-182 -32 c7 -7 12 -22 12 -35 0
-21 -5 -23 -45 -23 -25 0 -45 -4 -45 -9 0 -18 30 -33 55 -27 18 5 25 2 25 -9
0 -26 -75 -20 -94 7 -34 48 -7 108 48 108 17 0 37 -5 44 -12z m122 -3 c0 -11
-8 -13 -30 -8 -22 4 -30 2 -30 -9 0 -7 14 -19 30 -25 22 -8 30 -18 30 -36 0
-27 -16 -37 -61 -37 -19 0 -29 5 -29 15 0 11 8 13 30 9 23 -5 30 -3 30 9 0 8
-13 20 -30 26 -32 11 -40 37 -18 59 18 18 78 16 78 -3z"/>
<path d="M10670 2065 c-11 -13 -8 -15 20 -15 21 0 30 4 28 13 -7 18 -33 20
-48 2z"/>
<path d="M9894 1520 c-71 -46 -71 -47 -57 -73 16 -31 18 -30 110 31 53 35 54
38 26 78 -5 7 -32 -5 -79 -36z"/>
<path d="M4906 1535 c-16 -24 -16 -25 44 -65 79 -54 84 -55 103 -27 16 25 16
25 -53 71 -39 25 -72 46 -74 46 -2 0 -11 -11 -20 -25z"/>
<path d="M5138 1391 l-16 -28 75 -42 c41 -23 76 -41 78 -39 14 17 25 52 18 58
-4 4 -37 23 -73 43 l-66 35 -16 -27z"/>
<path d="M9663 1381 c-78 -46 -76 -44 -62 -75 l12 -26 66 36 c36 20 70 40 75
45 10 9 -11 60 -23 58 -3 0 -34 -17 -68 -38z"/>
<path d="M5381 1264 c-6 -14 -11 -27 -11 -29 0 -6 137 -75 148 -75 8 0 36 51
30 54 -2 1 -37 18 -79 38 l-76 37 -12 -25z"/>
<path d="M9414 1252 c-69 -35 -71 -38 -61 -62 6 -14 12 -26 13 -28 2 -4 154
66 154 72 0 11 -24 56 -29 56 -3 -1 -38 -18 -77 -38z"/>
<path d="M5631 1151 c-6 -11 -11 -24 -11 -29 0 -8 136 -72 153 -72 3 0 10 13
15 29 11 30 10 30 -135 88 -6 2 -16 -5 -22 -16z"/>
<path d="M9165 1141 c-38 -16 -69 -32 -67 -35 1 -3 2 -12 2 -18 1 -38 16 -39
91 -7 41 17 76 33 78 35 6 6 -17 54 -26 53 -5 0 -39 -13 -78 -28z"/>
<path d="M5882 1041 l-11 -30 77 -25 c43 -14 80 -26 84 -26 3 0 10 13 16 28
10 29 10 29 -62 52 -39 12 -76 25 -82 27 -7 2 -16 -9 -22 -26z"/>
<path d="M8910 1046 c-60 -21 -65 -25 -63 -51 1 -15 4 -30 7 -32 2 -3 40 8 84
23 79 28 79 28 70 56 -12 33 -14 33 -98 4z"/>
<path d="M6145 959 c-4 -17 -5 -32 -3 -34 8 -7 152 -44 158 -40 4 3 10 16 12
30 5 23 1 26 -51 41 -31 8 -68 19 -83 24 -24 8 -27 6 -33 -21z"/>
<path d="M8655 965 c-67 -19 -80 -25 -77 -41 7 -43 8 -43 91 -21 68 18 81 24
81 42 0 40 -11 43 -95 20z"/>
<path d="M6410 901 c0 -11 -2 -26 -5 -33 -8 -20 155 -54 167 -36 21 32 4 52
-52 63 -30 6 -67 15 -82 18 -23 6 -28 4 -28 -12z"/>
<path d="M8390 901 c-60 -14 -76 -21 -78 -36 -5 -41 8 -45 93 -27 50 11 80 22
79 30 -1 6 -2 21 -2 32 -1 11 -5 20 -9 19 -5 -1 -42 -9 -83 -18z"/>
<path d="M6680 846 c0 -8 -3 -21 -6 -29 -4 -11 9 -17 59 -26 103 -18 117 -16
117 18 0 27 -2 28 -69 40 -90 14 -101 14 -101 -3z"/>
<path d="M8145 855 c-5 -2 -31 -6 -57 -10 -43 -6 -48 -9 -48 -31 0 -14 6 -27
14 -30 14 -5 156 12 164 20 1 2 0 15 -4 30 -5 20 -12 26 -33 25 -14 0 -30 -2
-36 -4z"/>
<path d="M6950 794 c0 -31 1 -31 61 -38 106 -11 109 -10 109 24 0 17 -5 30
-12 31 -7 0 -46 4 -85 8 l-73 7 0 -32z"/>
<path d="M7890 823 c-117 -11 -120 -12 -120 -44 0 -33 1 -33 110 -23 l66 6 -4
34 c-2 19 -7 33 -11 32 -3 0 -22 -3 -41 -5z"/>
<path d="M7583 803 l-83 -4 0 -29 0 -30 85 0 85 0 0 35 c0 19 -1 34 -2 33 -2
-1 -40 -4 -85 -5z"/>
<path d="M7220 770 l0 -30 85 0 c67 0 85 3 85 14 0 8 3 21 6 30 5 14 -6 16
-85 16 l-91 0 0 -30z"/>
<path d="M14530 10 c-11 -7 4 -10 50 -10 46 0 61 3 50 10 -19 13 -81 13 -100
0z"/>
<path d="M14778 3 c7 -3 16 -2 19 1 4 3 -2 6 -13 5 -11 0 -14 -3 -6 -6z"/>
</g>
</svg>
